<svg id="svg" xmlns="http://www.w3.org/2000/svg" xmlns:xlink="http://www.w3.org/1999/xlink" width="400" height="400" viewBox="0, 0, 400,400"><g id="Workout" fill="#294e70"><path id="path0" d="M3.906 8.286 C -3.895 11.501,-0.584 24.735,8.594 27.024 C 13.320 28.202,23.374 32.447,30.934 36.458 C 48.622 45.841,63.597 45.688,81.913 35.938 C 100.332 26.132,108.422 26.132,126.863 35.937 C 145.395 45.791,157.411 45.795,176.814 35.951 C 196.088 26.172,203.912 26.172,223.186 35.951 C 242.589 45.795,254.605 45.791,273.137 35.938 C 281.219 31.641,291.336 28.125,295.621 28.125 C 299.906 28.125,310.015 31.641,318.087 35.938 C 336.403 45.688,351.378 45.841,369.066 36.458 C 376.626 32.447,386.680 28.202,391.406 27.024 C 401.749 24.445,403.715 10.975,394.190 7.952 C 387.298 5.765,381.999 7.306,360.087 17.871 L 343.611 25.815 328.031 17.732 C 302.462 4.466,294.057 4.177,269.045 15.706 L 247.150 25.799 230.606 17.057 C 208.666 5.464,191.334 5.464,169.394 17.057 L 152.850 25.799 130.955 15.706 C 105.929 4.171,97.542 4.464,71.899 17.768 L 56.250 25.887 40.955 17.952 C 24.534 9.433,10.200 5.693,3.906 8.286 M0.000 54.786 C 0.000 59.602,2.139 63.348,5.469 64.361 C 8.477 65.277,18.351 69.452,27.413 73.638 C 48.495 83.378,64.872 83.321,84.375 73.438 C 92.854 69.141,102.013 65.625,104.727 65.625 C 107.441 65.625,116.265 69.141,124.337 73.438 C 143.769 83.782,162.979 83.810,179.688 73.519 C 186.563 69.285,195.703 65.820,200.000 65.820 C 204.297 65.820,213.438 69.285,220.313 73.519 C 237.021 83.810,256.231 83.782,275.663 73.437 C 293.860 63.751,296.509 63.751,315.625 73.437 C 335.128 83.321,351.505 83.378,372.587 73.638 C 381.649 69.452,391.523 65.277,394.531 64.361 C 397.861 63.348,400.000 59.602,400.000 54.786 C 400.000 43.863,381.654 43.771,364.063 54.606 C 348.312 64.307,339.188 64.307,323.438 54.606 C 306.729 44.315,287.519 44.343,268.087 54.688 C 249.890 64.374,247.241 64.374,228.125 54.688 C 219.195 50.162,207.360 46.875,200.000 46.875 C 192.640 46.875,180.805 50.162,171.875 54.688 C 152.759 64.374,150.110 64.374,131.913 54.688 C 112.481 44.343,93.271 44.315,76.563 54.606 C 60.812 64.307,51.688 64.307,35.938 54.606 C 18.346 43.771,-0.000 43.863,0.000 54.786 M228.125 153.125 C 210.259 170.991,220.739 183.785,270.313 204.624 C 325.586 227.859,343.750 226.691,343.750 199.902 C 343.750 186.441,337.612 181.907,295.313 164.126 C 251.156 145.564,237.862 143.388,228.125 153.125 M64.547 171.340 C 49.629 187.824,59.591 196.759,92.969 196.832 C 116.147 196.883,116.498 195.850,99.100 178.776 C 84.337 164.287,73.115 161.872,64.547 171.340 M182.813 186.558 C 179.375 187.392,165.156 192.056,151.215 196.922 C 126.066 205.699,125.526 205.746,82.682 202.894 C 45.931 200.448,38.418 200.727,32.249 204.769 C 23.668 210.392,22.201 228.162,29.797 234.466 C 36.714 240.206,127.981 245.501,141.113 240.923 C 154.322 236.318,156.117 238.917,144.040 245.162 C 130.646 252.089,131.923 255.183,149.219 257.707 C 157.383 258.898,184.739 268.550,210.010 279.155 L 255.957 298.438 256.885 313.818 C 257.803 329.042,258.011 329.320,277.421 341.172 C 320.250 367.325,327.222 370.060,336.148 364.212 C 352.043 353.797,346.126 341.845,316.406 324.333 C 295.921 312.262,290.699 307.721,290.988 302.227 C 291.249 297.239,291.738 296.783,292.743 300.592 C 294.150 305.925,327.493 326.673,330.241 323.925 C 331.058 323.109,327.459 312.285,322.244 299.873 C 313.450 278.943,313.093 276.668,317.319 268.496 C 330.489 243.027,325.146 237.625,259.309 209.851 C 207.043 187.802,194.022 183.837,182.813 186.558 M337.260 243.510 C 319.738 261.031,329.361 292.916,353.906 298.665 C 363.339 300.874,365.300 296.839,357.813 290.625 C 344.211 279.337,358.777 250.000,377.983 250.000 C 390.045 250.000,390.174 245.293,378.280 239.143 C 363.192 231.341,347.789 232.980,337.260 243.510 M364.547 261.965 C 357.532 269.717,358.033 283.033,365.625 290.625 C 375.786 300.786,382.948 298.472,392.119 282.064 L 400.396 267.254 393.602 261.752 C 384.798 254.622,371.101 254.723,364.547 261.965 M348.589 345.019 C 350.070 352.915,349.238 358.510,345.802 363.753 C 339.310 373.661,370.539 396.579,384.496 392.149 C 403.367 386.160,399.131 369.972,374.059 352.262 C 345.076 331.789,346.165 332.099,348.589 345.019 "></path></g></svg>