<svg id="svg" xmlns="http://www.w3.org/2000/svg" xmlns:xlink="http://www.w3.org/1999/xlink" width="400" height="400" viewBox="0, 0, 400,400"><g id="Surfing" fill="#294e70"><path id="path0" d="M127.422 10.952 C 93.263 30.169,120.946 82.793,157.237 67.629 C 170.498 62.088,175.000 54.549,175.000 37.880 C 175.000 13.571,148.962 -1.165,127.422 10.952 M158.459 73.310 C 140.117 80.399,130.510 88.520,112.603 112.075 C 97.027 132.564,94.476 134.479,68.339 145.313 C 38.817 157.550,33.151 164.160,40.469 177.834 C 48.708 193.228,111.495 172.061,128.713 148.086 C 141.340 130.503,141.885 130.663,148.386 153.831 C 152.943 170.073,153.140 173.711,149.579 175.851 C 147.232 177.260,132.009 185.731,115.750 194.675 L 86.187 210.938 63.630 259.375 C 35.467 319.852,34.628 337.500,59.918 337.500 C 71.278 337.500,75.727 331.130,97.925 283.078 L 117.850 239.946 137.174 229.622 C 153.836 220.720,156.235 220.123,154.595 225.292 C 152.789 230.982,154.533 238.555,169.133 288.425 C 176.260 312.769,184.429 318.950,200.614 312.246 C 214.308 306.574,213.390 282.279,197.963 242.078 C 197.217 240.135,203.272 233.352,211.418 227.006 C 243.627 201.912,244.402 191.160,219.948 108.594 C 217.169 99.210,229.359 102.119,262.500 118.750 C 297.989 136.559,304.050 137.513,311.309 126.434 C 319.784 113.499,313.768 106.447,278.547 88.028 L 246.931 71.494 208.622 70.111 C 179.736 69.069,167.397 69.856,158.459 73.310 M361.239 157.227 C 350.740 167.726,335.845 209.375,342.590 209.375 C 343.671 209.375,349.778 204.805,356.163 199.219 C 362.547 193.633,370.803 186.615,374.510 183.624 C 385.031 175.136,382.487 150.000,371.108 150.000 C 369.655 150.000,365.214 153.252,361.239 157.227 M232.064 224.649 C 224.777 225.928,215.470 230.117,211.380 233.959 L 203.945 240.944 211.348 266.405 C 220.766 298.802,220.658 301.698,209.615 312.740 C 189.327 333.029,170.948 320.003,159.516 277.236 C 150.858 244.842,151.023 244.995,131.588 251.450 L 116.441 256.481 100.110 293.084 C 91.128 313.216,80.319 332.852,76.090 336.719 C 58.663 352.656,32.660 339.224,34.927 315.455 C 36.248 301.601,35.567 301.075,25.475 308.144 C 2.019 324.573,-7.253 353.125,10.868 353.125 C 16.846 353.125,29.503 356.934,38.995 361.589 L 56.254 370.054 72.970 361.589 C 92.363 351.770,113.028 350.497,129.047 358.136 C 161.227 373.482,314.409 294.542,326.524 256.370 C 334.974 229.747,289.679 214.536,232.064 224.649 M361.719 227.058 C 345.943 233.601,346.961 236.496,365.956 239.108 C 383.356 241.501,393.251 236.350,389.588 226.805 C 387.225 220.648,376.947 220.741,361.719 227.058 M0.574 367.858 C 1.334 374.381,3.727 376.831,10.938 378.464 C 16.094 379.632,25.883 383.549,32.692 387.169 C 49.028 395.853,63.989 395.479,81.913 385.938 C 89.985 381.641,100.094 378.125,104.379 378.125 C 108.664 378.125,118.781 381.641,126.863 385.938 C 145.413 395.801,160.362 395.790,177.663 385.900 C 194.811 376.097,205.189 376.097,222.337 385.900 C 239.638 395.790,254.587 395.801,273.137 385.938 C 281.219 381.641,291.336 378.125,295.621 378.125 C 299.906 378.125,310.015 381.641,318.087 385.938 C 336.011 395.479,350.972 395.853,367.308 387.169 C 374.117 383.549,383.906 379.632,389.063 378.464 C 396.273 376.831,398.666 374.381,399.426 367.858 C 400.778 356.264,382.303 355.871,364.063 367.106 C 348.254 376.843,342.496 376.854,324.337 367.188 C 304.781 356.777,284.174 356.806,267.188 367.269 C 251.541 376.906,247.026 376.897,228.788 367.188 C 219.370 362.174,209.056 359.375,200.000 359.375 C 190.944 359.375,180.630 362.174,171.212 367.188 C 152.974 376.897,148.459 376.906,132.813 367.269 C 115.826 356.806,95.219 356.777,75.663 367.188 C 57.504 376.854,51.746 376.843,35.938 367.106 C 17.697 355.871,-0.778 356.264,0.574 367.858"></path></g></svg>