<svg id="svg" xmlns="http://www.w3.org/2000/svg" xmlns:xlink="http://www.w3.org/1999/xlink" width="400" height="400" viewBox="0, 0, 400,400"><g id="Swim" fill="#294e70"><path id="path0" d="M242.188 51.565 C 112.686 85.945,101.742 98.596,143.651 165.467 C 156.404 185.816,159.034 192.077,155.754 194.278 C 153.449 195.825,142.045 202.842,130.412 209.872 C 102.652 226.649,102.629 226.966,128.968 229.524 C 141.395 230.731,172.656 235.697,198.438 240.559 C 250.352 250.349,284.375 254.783,284.375 251.759 C 284.375 250.671,282.081 246.278,279.276 241.999 C 274.184 234.226,274.188 234.221,282.605 237.421 C 319.809 251.566,357.708 226.375,357.708 187.500 C 357.708 120.932,262.604 114.498,250.706 180.261 L 248.438 192.799 230.819 163.996 L 213.200 135.193 250.214 124.941 C 299.414 111.313,316.475 92.045,302.466 65.926 C 291.679 45.813,277.014 42.320,242.188 51.565 M35.938 254.885 C 3.515 261.256,-0.584 263.682,0.585 275.804 C 1.768 288.068,6.956 288.465,53.125 279.826 C 92.063 272.540,129.877 274.688,195.313 287.905 C 288.204 306.668,397.048 300.161,399.418 275.702 C 400.776 261.694,395.819 260.633,359.127 267.078 C 321.142 273.750,270.570 273.717,232.737 266.994 C 217.310 264.253,189.400 259.308,170.716 256.005 C 130.592 248.913,68.942 248.400,35.938 254.885 M51.684 306.391 C 12.754 312.501,-0.000 317.859,0.000 328.102 C 0.000 341.844,7.810 344.467,29.958 338.165 C 62.132 329.009,141.444 330.811,193.750 341.887 C 286.088 361.439,396.920 354.658,399.387 329.305 C 400.698 315.834,394.985 314.484,364.514 321.065 C 322.152 330.215,259.941 328.259,198.438 315.844 C 143.905 304.837,85.541 301.077,51.684 306.391 "></path></g></svg>