<svg id="svg" xmlns="http://www.w3.org/2000/svg" xmlns:xlink="http://www.w3.org/1999/xlink" width="400" height="400" viewBox="0, 0, 400,400"><g id="VirtualRide" fill="#294e70"><path id="path0" d="M168.431 7.094 C 143.563 23.707,139.591 57.689,159.906 80.038 L 165.906 86.639 152.755 88.403 C 130.595 91.376,125.350 97.896,101.017 152.722 C 71.223 219.852,70.261 226.888,88.253 246.094 L 94.839 253.125 82.177 253.125 C 62.978 253.125,54.862 269.645,71.876 274.095 C 77.414 275.543,77.885 277.510,76.173 292.069 C 74.838 303.435,75.682 311.658,78.945 319.052 C 81.526 324.902,85.250 337.502,87.220 347.052 C 93.882 379.341,118.968 400.000,151.516 400.000 C 182.884 400.000,302.886 367.462,313.281 356.138 C 323.300 345.225,325.174 324.450,316.960 315.374 C 312.585 310.540,312.552 308.964,316.658 301.024 C 328.823 277.500,340.825 196.526,333.941 184.417 C 332.463 181.816,329.821 175.664,328.072 170.747 C 325.309 162.981,323.612 161.994,315.156 163.235 C 306.994 164.433,303.594 162.722,294.117 152.650 C 283.140 140.984,282.192 140.635,261.395 140.630 L 239.978 140.625 214.836 119.655 L 189.695 98.685 204.545 94.896 C 261.672 80.323,253.857 0.000,195.313 0.000 C 183.607 0.000,176.074 1.988,168.431 7.094 M261.255 180.564 C 304.657 178.677,306.262 180.058,306.216 219.251 C 306.183 248.164,302.045 268.437,292.353 287.180 C 286.312 298.861,288.666 298.781,248.366 288.683 L 215.673 280.491 217.603 268.419 C 220.791 248.482,207.579 234.714,180.361 229.608 C 166.428 226.994,166.498 227.720,177.779 202.776 C 182.745 191.796,189.025 177.483,191.734 170.968 L 196.661 159.124 213.174 170.530 L 229.688 181.936 261.255 180.564 M108.645 284.117 C 96.943 294.573,95.792 294.466,98.624 283.181 C 100.250 276.703,102.569 275.000,109.763 275.000 L 118.849 275.000 108.645 284.117 M159.375 285.586 C 159.375 286.251,151.656 299.962,142.221 316.054 C 123.872 347.352,121.639 357.657,130.763 368.925 C 144.717 386.157,162.964 376.277,183.011 340.635 C 196.611 316.456,198.549 314.969,200.839 326.951 C 206.694 357.578,171.523 390.111,141.780 381.581 C 96.942 368.722,90.257 312.043,131.144 291.406 C 143.253 285.294,159.375 281.970,159.375 285.586 "></path></g></svg>