<svg id="svg" xmlns="http://www.w3.org/2000/svg" xmlns:xlink="http://www.w3.org/1999/xlink" width="400" height="400" viewBox="0, 0, 400,400"><g id="Hike" fill="#294e70"><path id="path0" d="M137.831 8.013 C 116.444 26.009,119.770 61.037,144.059 73.597 C 178.245 91.276,214.934 55.518,198.387 20.647 C 188.312 -0.584,156.048 -7.315,137.831 8.013 M27.335 43.701 C -1.090 66.060,18.194 90.817,68.196 96.157 C 103.556 99.933,100.447 95.328,94.500 135.125 C 91.744 153.567,90.337 169.504,91.374 170.541 C 92.829 171.995,117.135 160.033,124.762 154.109 C 125.490 153.543,122.743 142.420,118.657 129.391 L 111.228 105.701 119.676 90.671 C 136.577 60.606,125.754 45.242,84.375 40.556 C 45.691 36.175,36.240 36.696,27.335 43.701 M130.818 90.680 C 119.027 97.566,135.356 169.681,152.937 188.371 C 166.020 202.280,236.334 216.171,245.028 206.564 C 261.015 188.899,251.040 174.388,216.670 165.309 C 184.363 156.774,183.867 156.317,173.663 125.677 C 161.274 88.476,150.150 79.390,130.818 90.680 M34.375 107.269 C 34.375 116.028,38.294 122.829,54.763 142.650 C 79.965 172.981,79.910 172.965,82.267 150.890 C 83.329 140.947,85.111 126.282,86.228 118.300 C 88.528 101.859,89.660 102.524,52.344 98.407 L 34.375 96.425 34.375 107.269 M30.107 144.531 C 21.648 205.158,25.163 219.586,49.354 223.532 C 55.725 224.571,64.453 226.063,68.750 226.848 C 76.513 228.267,76.562 228.132,76.407 205.373 L 76.252 182.470 54.815 156.860 C 29.593 126.728,32.395 128.126,30.107 144.531 M109.375 173.548 C 99.922 179.361,91.152 184.527,89.887 185.027 C 81.738 188.251,84.035 216.240,95.598 254.614 L 107.570 294.342 99.097 326.555 C 84.951 380.342,96.349 404.506,127.902 387.619 C 139.441 381.444,161.379 299.904,156.361 281.838 C 151.744 265.214,152.033 264.852,163.792 272.560 C 173.176 278.711,174.704 281.625,176.501 296.807 C 180.241 328.401,183.930 337.875,193.965 341.663 C 206.581 346.425,206.317 346.769,178.172 362.280 C 152.296 376.541,147.272 382.814,153.062 393.632 C 158.897 404.536,171.096 401.017,217.075 375.169 C 252.018 355.526,265.422 349.666,281.243 347.118 C 307.379 342.909,309.741 339.890,321.780 295.313 C 331.594 258.973,332.719 256.717,358.141 222.388 C 385.780 185.067,387.329 181.526,379.464 173.661 C 361.944 156.141,311.863 217.731,296.016 276.287 C 285.953 313.467,282.358 318.750,267.120 318.750 C 261.724 318.750,250.743 322.074,242.717 326.137 L 228.125 333.525 228.125 319.705 C 228.125 302.301,222.536 263.149,218.753 254.049 C 217.178 250.261,204.802 239.714,191.251 230.612 C 177.699 221.510,167.170 212.424,167.853 210.421 C 168.536 208.419,165.853 205.796,161.891 204.594 C 150.715 201.201,141.273 190.968,135.592 176.092 C 129.473 160.071,131.042 160.223,109.375 173.548 "></path></g></svg>