<svg id="svg" xmlns="http://www.w3.org/2000/svg" xmlns:xlink="http://www.w3.org/1999/xlink" width="400" height="400" viewBox="0, 0, 400,400">
<g id="Ride" fill="#294e70">
<path id="path0" d="M276.755 38.281 C 249.610 65.525,267.809 109.382,306.250 109.358 C 337.810 109.339,357.354 72.725,339.750 46.601 C 
325.073 24.822,294.225 20.748,276.755 38.281 M168.456 101.807 C 80.991 156.185,76.968 173.955,142.278 217.448 L 178.103 241.306 149.989 
272.223 C 118.620 306.721,114.841 317.303,129.108 330.705 C 145.565 346.166,153.624 342.006,202.233 292.969 C 260.801 233.884,262.371 226.275,221.088 
201.563 C 196.764 187.002,196.728 186.923,210.607 178.734 L 221.214 172.476 222.995 181.380 C 225.352 193.165,230.826 195.651,267.483 201.589 C 308.070 
208.164,314.804 210.787,298.340 213.607 C 261.894 219.852,232.620 264.610,239.186 304.047 C 255.840 404.073,400.191 390.615,399.914 289.063 C 399.814 
252.529,367.344 212.500,337.809 212.500 C 329.545 212.500,327.100 207.866,332.847 203.096 C 338.565 198.350,338.930 181.276,333.473 173.812 C 330.680 
169.992,320.049 166.706,298.791 163.089 L 268.136 157.874 270.176 132.843 C 272.146 108.672,271.889 107.300,262.696 92.901 C 243.296 62.512,229.574 
63.808,168.456 101.807 M60.938 212.167 C -33.297 236.419,-14.709 372.055,82.813 371.789 C 105.524 371.727,143.766 354.813,134.039 349.133 C 133.364 
348.739,128.156 345.152,122.466 341.161 C 112.391 334.097,111.898 334.052,103.716 339.462 C 80.576 354.763,46.729 342.398,32.430 313.421 C 3.795 
255.391,84.224 209.248,123.728 261.041 L 132.194 272.140 141.097 263.610 C 152.759 252.437,152.374 249.249,137.572 234.447 C 118.418 215.293,85.724 
205.788,60.938 212.167 M343.844 244.531 C 393.447 269.590,375.978 345.089,320.577 345.089 C 274.059 345.089,248.782 291.709,279.002 257.291 C 297.080 236.702,319.581 232.274,343.844 244.531 ">
</path>
</g>
</svg>