<svg id="svg" xmlns="http://www.w3.org/2000/svg" xmlns:xlink="http://www.w3.org/1999/xlink" width="400" height="400" viewBox="0, 0, 400,400"><g id="Run" fill="#294e70"><path id="path0" d="M309.375 18.622 C 284.363 24.035,273.517 51.342,287.362 74.049 C 300.015 94.799,334.413 94.712,347.105 73.897 C 364.427 45.490,341.362 11.700,309.375 18.622 M157.553 72.256 C 117.689 111.666,112.729 119.669,119.462 133.717 C 130.774 157.318,148.055 153.093,183.380 118.087 L 208.947 92.751 217.128 98.111 C 224.645 103.036,256.865 82.059,261.654 69.122 C 262.048 68.058,251.501 59.800,238.216 50.771 C 203.194 26.967,203.425 26.906,157.553 72.256 M25.715 56.785 C 10.821 71.679,24.602 78.472,67.631 77.446 L 104.688 76.563 104.688 65.625 L 104.688 54.688 67.122 53.816 C 40.560 53.199,28.431 54.069,25.715 56.785 M221.066 136.719 C 150.716 206.406,150.859 205.777,195.276 249.963 L 221.780 276.330 187.452 311.123 C 149.865 349.219,144.035 362.680,159.185 376.391 C 175.165 390.852,184.548 385.739,235.456 334.831 C 295.485 274.802,294.931 277.918,253.059 235.871 L 223.617 206.306 239.131 190.556 L 254.645 174.805 257.168 185.059 C 262.104 205.115,266.008 206.250,330.034 206.250 C 395.862 206.250,400.000 204.800,400.000 181.734 C 400.000 161.014,393.549 157.995,346.550 156.717 L 306.250 155.622 306.250 128.356 C 306.250 96.715,300.615 87.500,281.269 87.500 C 271.880 87.500,265.431 92.772,221.066 136.719 M1.254 104.364 C -5.273 121.374,-1.051 123.438,40.284 123.438 C 82.188 123.438,90.706 120.124,82.462 107.031 C 77.700 99.467,4.062 97.048,1.254 104.364 M25.715 150.535 C 10.821 165.429,24.602 172.222,67.631 171.196 L 104.688 170.313 104.688 159.375 L 104.688 148.438 67.122 147.566 C 40.560 146.949,28.431 147.819,25.715 150.535 M77.344 280.488 C 6.544 351.638,1.072 360.564,18.560 376.391 C 35.312 391.551,42.569 387.056,109.815 319.873 C 179.823 249.930,175.706 256.529,160.156 239.207 C 153.711 232.027,147.031 223.716,145.313 220.738 C 142.645 216.116,132.698 224.860,77.344 280.488 "></path></g></svg>