<svg id="svg" xmlns="http://www.w3.org/2000/svg" xmlns:xlink="http://www.w3.org/1999/xlink" width="400" height="400" viewBox="0, 0, 400,400">
<g id="BackcountrySki" fill="#294e70">
<path id="path0" d="M96.006 21.108 C 81.634 36.990,83.892 39.203,179.688 103.125 C 266.358 160.958,268.750 162.831,268.750 172.867 C 268.750
 189.775,273.746 193.036,318.167 205.125 C 363.698 217.516,371.626 217.073,378.608 201.749 C 386.335 184.792,376.191 174.151,343.750 165.181
  C 319.838 158.569,315.901 154.763,319.033 141.281 C 330.480 92.000,300.615 60.682,259.173 78.510 C 239.840 86.827,239.930 88.025,260.938
   101.973 C 275.235 111.466,284.392 125.000,276.517 125.000 C 275.633 125.000,238.719 100.837,194.486 71.305 C 108.882 14.152,104.379 11.857,96.006 
   21.108 M330.766 50.132 C 304.239 78.018,321.711 115.625,361.195 115.625 C 398.198 115.625,411.177 64.479,379.477 43.582 C 363.141 32.814,344.909 
   35.265,330.766 50.132 M173.330 121.142 C 142.358 143.138,150.402 177.160,193.946 208.336 C 223.848 229.744,224.454 224.547,188.517 254.856 L 158.675 
   280.025 86.910 255.245 C 6.457 227.466,0.000 226.927,-0.000 247.988 C -0.000 262.837,-10.002 258.625,182.760 324.954 L 357.708 385.153 371.443 377.867 C 
   393.226 366.311,400.000 359.795,400.000 350.398 C 400.000 333.474,386.162 329.607,366.244 340.965 L 354.688 347.555 288.281 324.657 C 251.758 312.063,221.875 
   300.882,221.875 299.811 C 221.875 298.740,236.526 285.595,254.433 270.599 C 288.995 241.656,290.625 239.547,290.625 223.767 C 290.625 212.935,284.484 205.831,260.105 
   188.457 C 247.006 179.121,246.889 178.878,253.437 174.531 C 259.801 170.305,258.360 168.953,221.336 144.428 C 182.140 118.464,179.145 117.011,173.330 121.142 ">
   </path>
</g>
</svg>